<svg xmlns="http://www.w3.org/2000/svg" width="40" height="40" viewBox="0 0 40 40">
  <g id="icon" transform="translate(-100.956 -166.796)">
    <rect id="矩形_14761" data-name="矩形 14761" width="40" height="40" transform="translate(100.956 166.796)" fill="none"/>
    <path id="减去_57" data-name="减去 57" d="M26.984,29.993h-.2a7.089,7.089,0,1,1,0-14.179h.105a7.09,7.09,0,0,1,.1,14.18Zm-2.972-7.4a.72.72,0,0,0-.508,1.23L25.785,26.1a.722.722,0,0,0,1.019,0l4.371-4.37a.721.721,0,0,0-1.021-1.019l-3.89,3.828L24.522,22.8A.716.716,0,0,0,24.012,22.588Zm-11.139-5a1.082,1.082,0,0,1-.532-.14L0,10.4V4.286A4.3,4.3,0,0,1,1.254,1.253,4.247,4.247,0,0,1,4.276,0H21.421a4.29,4.29,0,0,1,4.285,4.286V10.4l-12.3,7.041A1.082,1.082,0,0,1,12.874,17.584ZM6.087,8.994c-1.194,0-1.8.479-1.8,1.424s.6,1.425,1.8,1.425h7.124c1.194,0,1.8-.479,1.8-1.425s-.6-1.424-1.8-1.424ZM6.081,3.832c-1.194,0-1.8.479-1.8,1.425s.606,1.424,1.8,1.424H19.621c1.195,0,1.8-.479,1.8-1.424s-.605-1.425-1.8-1.425Z" transform="translate(105.042 171.8)" fill="#a8a8a8"/>
    <path id="路径_49659" data-name="路径 49659" d="M120.784,443.267a9.223,9.223,0,0,1,9.136-9.133h.135a9.176,9.176,0,0,1,.971.056v-1.125a1.072,1.072,0,0,0-1.6-.945l-12.84,7.356a1.08,1.08,0,0,1-1.065,0l-12.882-7.356a1.072,1.072,0,0,0-1.6.93v13.155a4.285,4.285,0,0,0,4.285,4.285h18.771A9.256,9.256,0,0,1,120.784,443.267Z" transform="translate(1.861 -248.699)" fill="#a8a8a8"/>
  </g>
</svg>
